<mxfile host="app.diagrams.net" modified="2022-01-04T05:29:34.810Z" agent="5.0 (Windows NT 10.0; Win64; x64) AppleWebKit/537.36 (KHTML, like Gecko) Chrome/95.0.4638.69 Safari/537.36" etag="xZCrQHyQaEgHBb4kCFY3" version="16.1.2" type="github">
  <diagram id="00T8672XdWEvwJekG5B6" name="Page-1">
    <mxGraphModel dx="2249" dy="705" grid="1" gridSize="10" guides="1" tooltips="1" connect="1" arrows="1" fold="1" page="1" pageScale="1" pageWidth="827" pageHeight="1169" math="0" shadow="0">
      <root>
        <mxCell id="0" />
        <mxCell id="1" parent="0" />
        <mxCell id="vYqXfZT6JnJgU1GFTuYv-1" value="Satın Alma ve Hizmet verme genel akışı" style="text;html=1;align=center;verticalAlign=middle;resizable=0;points=[];autosize=1;strokeColor=none;fillColor=none;" vertex="1" parent="1">
          <mxGeometry x="50" y="30" width="230" height="20" as="geometry" />
        </mxCell>
        <mxCell id="vYqXfZT6JnJgU1GFTuYv-4" style="edgeStyle=orthogonalEdgeStyle;rounded=0;orthogonalLoop=1;jettySize=auto;html=1;exitX=0.5;exitY=1;exitDx=0;exitDy=0;entryX=0.5;entryY=0;entryDx=0;entryDy=0;" edge="1" parent="1" source="vYqXfZT6JnJgU1GFTuYv-2" target="vYqXfZT6JnJgU1GFTuYv-3">
          <mxGeometry relative="1" as="geometry" />
        </mxCell>
        <mxCell id="vYqXfZT6JnJgU1GFTuYv-2" value="Çamaşır makinesi (ürün) üretildi" style="rounded=1;whiteSpace=wrap;html=1;" vertex="1" parent="1">
          <mxGeometry x="100" y="60" width="120" height="60" as="geometry" />
        </mxCell>
        <mxCell id="vYqXfZT6JnJgU1GFTuYv-14" style="edgeStyle=orthogonalEdgeStyle;rounded=0;orthogonalLoop=1;jettySize=auto;html=1;exitX=0.5;exitY=1;exitDx=0;exitDy=0;" edge="1" parent="1" source="vYqXfZT6JnJgU1GFTuYv-3" target="vYqXfZT6JnJgU1GFTuYv-5">
          <mxGeometry relative="1" as="geometry" />
        </mxCell>
        <mxCell id="vYqXfZT6JnJgU1GFTuYv-3" value="Ürün bayi veya internet sitesi üzerinden satın alındı" style="rounded=1;whiteSpace=wrap;html=1;fillColor=default;gradientColor=none;" vertex="1" parent="1">
          <mxGeometry x="100" y="160" width="120" height="60" as="geometry" />
        </mxCell>
        <mxCell id="vYqXfZT6JnJgU1GFTuYv-15" style="edgeStyle=orthogonalEdgeStyle;rounded=0;orthogonalLoop=1;jettySize=auto;html=1;exitX=0.5;exitY=1;exitDx=0;exitDy=0;" edge="1" parent="1" source="vYqXfZT6JnJgU1GFTuYv-5" target="vYqXfZT6JnJgU1GFTuYv-8">
          <mxGeometry relative="1" as="geometry" />
        </mxCell>
        <mxCell id="vYqXfZT6JnJgU1GFTuYv-5" value="Satın alım verisi Tüketici Hizmetlerine gider. İlgili adrese montaj talebi oluştur." style="rounded=1;whiteSpace=wrap;html=1;" vertex="1" parent="1">
          <mxGeometry x="100" y="270" width="120" height="60" as="geometry" />
        </mxCell>
        <mxCell id="vYqXfZT6JnJgU1GFTuYv-16" style="edgeStyle=orthogonalEdgeStyle;rounded=0;orthogonalLoop=1;jettySize=auto;html=1;exitX=0.5;exitY=1;exitDx=0;exitDy=0;entryX=0.5;entryY=0;entryDx=0;entryDy=0;" edge="1" parent="1" source="vYqXfZT6JnJgU1GFTuYv-8" target="vYqXfZT6JnJgU1GFTuYv-10">
          <mxGeometry relative="1" as="geometry" />
        </mxCell>
        <mxCell id="vYqXfZT6JnJgU1GFTuYv-8" value="İlgili adrese servis gider. Ürünü kurar, çalıştırır." style="rounded=1;whiteSpace=wrap;html=1;" vertex="1" parent="1">
          <mxGeometry x="100" y="380" width="120" height="60" as="geometry" />
        </mxCell>
        <mxCell id="vYqXfZT6JnJgU1GFTuYv-18" style="edgeStyle=orthogonalEdgeStyle;rounded=0;orthogonalLoop=1;jettySize=auto;html=1;exitX=0.5;exitY=1;exitDx=0;exitDy=0;entryX=0.5;entryY=0;entryDx=0;entryDy=0;" edge="1" parent="1" source="vYqXfZT6JnJgU1GFTuYv-10" target="vYqXfZT6JnJgU1GFTuYv-12">
          <mxGeometry relative="1" as="geometry" />
        </mxCell>
        <mxCell id="vYqXfZT6JnJgU1GFTuYv-10" value="Ürün bayi veya internet sitesi üzerinden satın alındı" style="rounded=1;whiteSpace=wrap;html=1;" vertex="1" parent="1">
          <mxGeometry x="-90" y="490" width="120" height="60" as="geometry" />
        </mxCell>
        <mxCell id="vYqXfZT6JnJgU1GFTuYv-12" value="Ürün bayi veya internet sitesi üzerinden satın alındı" style="rounded=1;whiteSpace=wrap;html=1;" vertex="1" parent="1">
          <mxGeometry x="-90" y="600" width="120" height="60" as="geometry" />
        </mxCell>
        <mxCell id="vYqXfZT6JnJgU1GFTuYv-13" value="Satış Kaydı" style="shape=cylinder3;whiteSpace=wrap;html=1;boundedLbl=1;backgroundOutline=1;size=15;fillColor=default;gradientColor=none;" vertex="1" parent="1">
          <mxGeometry x="380" y="200" width="60" height="80" as="geometry" />
        </mxCell>
        <mxCell id="vYqXfZT6JnJgU1GFTuYv-19" value="" style="endArrow=classic;dashed=1;html=1;dashPattern=1 3;strokeWidth=2;rounded=0;endFill=0;entryX=0;entryY=0.5;entryDx=0;entryDy=0;entryPerimeter=0;" edge="1" parent="1" target="vYqXfZT6JnJgU1GFTuYv-13">
          <mxGeometry width="50" height="50" relative="1" as="geometry">
            <mxPoint x="160" y="240" as="sourcePoint" />
            <mxPoint x="440" y="320" as="targetPoint" />
          </mxGeometry>
        </mxCell>
        <mxCell id="vYqXfZT6JnJgU1GFTuYv-20" value="Üretim Kaydı" style="shape=cylinder3;whiteSpace=wrap;html=1;boundedLbl=1;backgroundOutline=1;size=15;fillColor=default;gradientColor=none;" vertex="1" parent="1">
          <mxGeometry x="380" y="90" width="60" height="80" as="geometry" />
        </mxCell>
        <mxCell id="vYqXfZT6JnJgU1GFTuYv-21" value="" style="endArrow=classic;dashed=1;html=1;dashPattern=1 3;strokeWidth=2;rounded=0;endFill=0;entryX=0;entryY=0.5;entryDx=0;entryDy=0;entryPerimeter=0;" edge="1" parent="1" target="vYqXfZT6JnJgU1GFTuYv-20">
          <mxGeometry width="50" height="50" relative="1" as="geometry">
            <mxPoint x="160" y="130" as="sourcePoint" />
            <mxPoint x="440" y="210" as="targetPoint" />
          </mxGeometry>
        </mxCell>
        <mxCell id="vYqXfZT6JnJgU1GFTuYv-22" value="Montajı yapan servis, montaj kayıdı oluşturur. (Servisin fis_no ile kayıt oluşturması zorunlu)" style="rounded=1;whiteSpace=wrap;html=1;" vertex="1" parent="1">
          <mxGeometry x="280" y="490" width="120" height="90" as="geometry" />
        </mxCell>
        <mxCell id="vYqXfZT6JnJgU1GFTuYv-23" value="Ürün bayi veya internet sitesi üzerinden satın alındı" style="rounded=1;whiteSpace=wrap;html=1;" vertex="1" parent="1">
          <mxGeometry x="280" y="610" width="120" height="60" as="geometry" />
        </mxCell>
        <mxCell id="vYqXfZT6JnJgU1GFTuYv-24" style="edgeStyle=orthogonalEdgeStyle;rounded=0;orthogonalLoop=1;jettySize=auto;html=1;exitX=0.5;exitY=1;exitDx=0;exitDy=0;" edge="1" parent="1" source="vYqXfZT6JnJgU1GFTuYv-8" target="vYqXfZT6JnJgU1GFTuYv-22">
          <mxGeometry relative="1" as="geometry">
            <mxPoint x="170" y="450" as="sourcePoint" />
            <mxPoint x="-20" y="500" as="targetPoint" />
          </mxGeometry>
        </mxCell>
        <mxCell id="vYqXfZT6JnJgU1GFTuYv-25" value="Ürün hatalı mı?" style="text;html=1;align=center;verticalAlign=middle;resizable=0;points=[];autosize=1;strokeColor=none;fillColor=none;" vertex="1" parent="1">
          <mxGeometry x="110" y="470" width="100" height="20" as="geometry" />
        </mxCell>
        <mxCell id="vYqXfZT6JnJgU1GFTuYv-26" value="Hayır" style="text;html=1;align=center;verticalAlign=middle;resizable=0;points=[];autosize=1;strokeColor=none;fillColor=none;" vertex="1" parent="1">
          <mxGeometry x="280" y="440" width="40" height="20" as="geometry" />
        </mxCell>
        <mxCell id="vYqXfZT6JnJgU1GFTuYv-27" value="Evet" style="text;html=1;align=center;verticalAlign=middle;resizable=0;points=[];autosize=1;strokeColor=none;fillColor=none;" vertex="1" parent="1">
          <mxGeometry y="440" width="40" height="20" as="geometry" />
        </mxCell>
      </root>
    </mxGraphModel>
  </diagram>
</mxfile>
